<svg width="32" height="32" viewBox="0 0 32 32" fill="none" xmlns="http://www.w3.org/2000/svg">
  <circle cx="16" cy="16" r="15" stroke="#ffffff" stroke-width="2" fill="rgba(59, 130, 246, 0.1)"/>
  <path d="M12 8v12c0 2.21-1.79 4-4 4s-4-1.79-4-4 1.79-4 4-4c.34 0 .68.04 1 .12V8h3z" fill="#3b82f6"/>
  <path d="M24 6v10c0 2.21-1.79 4-4 4s-4-1.79-4-4 1.79-4 4-4c.34 0 .68.04 1 .12V6h3z" fill="#60a5fa"/>
  <circle cx="8" cy="20" r="2" fill="#1e40af"/>
  <circle cx="20" cy="16" r="2" fill="#3730a3"/>
</svg>
